<?xml version="1.0" standalone="no"?>
<!DOCTYPE svg PUBLIC "-//W3C//DTD SVG 1.1//EN" "http://www.w3.org/Graphics/SVG/1.1/DTD/svg11.dtd">
<svg xmlns="http://www.w3.org/2000/svg">
<metadata>Copyright (C) 2019 by original authors @ fontello.com</metadata>
<defs>
<font id="wsu-icons" horiz-adv-x="1000" >
<font-face font-family="wsu-icons" font-weight="400" font-stretch="normal" units-per-em="1000" ascent="850" descent="-150" />
<missing-glyph horiz-adv-x="1000" />
<glyph glyph-name="wsu-i-alarm" unicode="&#xe800;" d="M502 663a344 344 0 1 0-344-344 344 344 0 0 0 344 344m0 125a469 469 0 1 1 469-469 469 469 0 0 1-469 469z m154-657a63 63 0 0 0-38 14l-179 143v218a63 63 0 1 0 125 0v-156l134-106a63 63 0 0 0 9-88 63 63 0 0 0-51-25z m283 532a63 63 0 0 0-44 18l-62 63a63 63 0 0 0 0 88 63 63 0 0 0 88 0l63-63a63 63 0 0 0-45-106z m-875 0a63 63 0 0 0-44 18 63 63 0 0 0 0 88l63 63a63 63 0 0 0 88 0 63 63 0 0 0 0-88l-62-63a63 63 0 0 0-45-18z" horiz-adv-x="1000" />

<glyph glyph-name="wsu-i-alert-notification" unicode="&#xe801;" d="M783 350l0 0v111a293 293 0 0 1-220 287 49 49 0 0 1 0 8 63 63 0 0 1-125 0s0-4 0-7a281 281 0 0 1-219-274v-125l0 0a468 468 0 0 1-182-304 63 63 0 0 1 62-71h276a125 125 0 0 1 250 0h276a63 63 0 0 1 63 72 468 468 0 0 1-181 303z m-603-250a338 338 0 0 0 113 149l51 39v187a156 156 0 0 0 156 156h14a168 168 0 0 0 142-170v-111l0-62 50-38a338 338 0 0 0 114-150z" horiz-adv-x="1000" />

<glyph glyph-name="wsu-i-arrow-carrot-down" unicode="&#xe802;" d="" horiz-adv-x="1000" />

<glyph glyph-name="wsu-i-arrow-carrot-up" unicode="&#xe803;" d="" horiz-adv-x="1000" />

<glyph glyph-name="wsu-i-arrow-down-carrot" unicode="&#xe804;" d="M919 582a63 63 0 0 1-88 0l-331-331-331 331a63 63 0 0 1-88-89l375-375a63 63 0 0 1 88 0l375 375a63 63 0 0 1 0 89z" horiz-adv-x="1000" />

<glyph glyph-name="wsu-i-arrow-down" unicode="&#xe805;" d="M81 243l375-375a63 63 0 0 1 88 0l375 375a63 63 0 0 1 0 89 63 63 0 0 1-88 0l-268-270v726a63 63 0 0 1-125 0v-723l-269 267a63 63 0 0 1-88 0 63 63 0 0 1 0-89z" horiz-adv-x="1000" />

<glyph glyph-name="wsu-i-arrow-left-carrot" unicode="&#xe806;" d="M401 350l331 331a63 63 0 1 1-89 88l-375-375a63 63 0 0 1 0-88l375-375a63 63 0 0 1 89 0 63 63 0 0 1 0 88z" horiz-adv-x="1000" />

<glyph glyph-name="wsu-i-arrow-left" unicode="&#xe807;" d="M393 769l-375-375a63 63 0 0 1 0-88l375-375a63 63 0 0 1 89 0 63 63 0 0 1 0 88l-270 269h726a63 63 0 0 1 0 125h-723l267 268a63 63 0 0 1 0 88 63 63 0 0 1-89 0z" horiz-adv-x="1000" />

<glyph glyph-name="wsu-i-arrow-right-carrot" unicode="&#xe808;" d="M732 394l-375 375a63 63 0 0 1-89-88l331-331-331-331a63 63 0 0 1 0-88 63 63 0 0 1 89 0l375 375a63 63 0 0 1 0 88z" horiz-adv-x="1000" />

<glyph glyph-name="wsu-i-arrow-right" unicode="&#xe809;" d="M607-69l375 375a63 63 0 0 1 0 88l-375 375a63 63 0 0 1-89 0 63 63 0 0 1 0-88l270-268h-725a63 63 0 0 1 0-125h722l-267-269a63 63 0 0 1 0-88 63 63 0 0 1 89 0z" horiz-adv-x="1000" />

<glyph glyph-name="wsu-i-arrow-up-carrot" unicode="&#xe80a;" d="M919 207l-375 375a63 63 0 0 1-88 0l-375-375a63 63 0 0 1 0-89 63 63 0 0 1 88 0l331 331 331-331a63 63 0 0 1 88 0 63 63 0 0 1 0 89z" horiz-adv-x="1000" />

<glyph glyph-name="wsu-i-arrow-up" unicode="&#xe80b;" d="M919 457l-375 375a63 63 0 0 1-88 0l-375-375a63 63 0 0 1 0-89 63 63 0 0 1 88 0l269 270v-726a63 63 0 0 1 125 0v723l266-267a63 63 0 0 1 89 0 63 63 0 0 1 1 89z" horiz-adv-x="1000" />

<glyph glyph-name="wsu-i-attachment" unicode="&#xe80c;" d="M531 850a344 344 0 0 1-343-344v-406a250 250 0 0 1 500 0v406a156 156 0 0 1-313 0v-406a63 63 0 0 1 125 0v406a31 31 0 0 0 63 0v-406a125 125 0 0 0-250 0v406a219 219 0 0 0 437 0v-406a63 63 0 0 1 125 0v406a344 344 0 0 1-344 344z" horiz-adv-x="1000" />

<glyph glyph-name="wsu-i-basket" unicode="&#xe80d;" d="M1000 413s0 0 0 0a44 44 0 0 1 0 12c0 4 0 8 0 11l-7 10a55 55 0 0 1-7 9 44 44 0 0 1-9 6 43 43 0 0 1-12 7l0 0a48 48 0 0 1-9 0l-18 7h-875l-10 0a48 48 0 0 1-9 0l0 0a43 43 0 0 1-12-6 44 44 0 0 1-9-6 55 55 0 0 1-7-10l-10-14c0-3 0-7 0-11a44 44 0 0 1-6-15s0 0 0 0a50 50 0 0 1 0-10 48 48 0 0 1 0-9l156-500s0 0 0 0l4-7a57 57 0 0 1 8-12l6-6a53 53 0 0 1 12-8l7 0a63 63 0 0 1 26-11h562a63 63 0 0 1 22 4l7 0a53 53 0 0 1 12 9l6 6a57 57 0 0 1 8 12l3 6s0 0 0 0l157 501a48 48 0 0 1 0 9 50 50 0 0 1 4 16z m-264-438h-472l-116 375h705z m-236 563a63 63 0 0 1 63 62v188a63 63 0 0 1-125 0v-188a63 63 0 0 1 62-62z" horiz-adv-x="1000" />

<glyph glyph-name="wsu-i-bookmark" unicode="&#xe80e;" d="M188 850v-968a36 36 0 0 1 39-32 46 46 0 0 1 27 9l246 179 246-179a46 46 0 0 1 27-9 36 36 0 0 1 40 32v968z m500-128v-122h-372v122z m-113-581l-75 55-75-55-109-79v413h372v-412z" horiz-adv-x="1000" />

<glyph glyph-name="wsu-i-calendar" unicode="&#xe80f;" d="M938 725h-125v63a63 63 0 0 1-125 0v-63h-375v63a63 63 0 0 1-125 0v-63h-125a63 63 0 0 1-63-62v-751a63 63 0 0 1 63-62h625a63 63 0 0 1 43 18h0l250 250h0s0 0 0 0a58 58 0 0 1 13 20 73 73 0 0 1 4 19s2 6 2 6v500a63 63 0 0 1-62 62z m-250-724v162h160z m187 599v-312h-250a63 63 0 0 1-62-63v-250h-438v625z" horiz-adv-x="1000" />

<glyph glyph-name="wsu-i-cart" unicode="&#xe810;" d="M988 638a63 63 0 0 1-50 25h-672l-16 76a63 63 0 0 1-62 49h-125a63 63 0 0 1 0-125h75l16-75 0 0 97-437a63 63 0 0 1 62-51h500a63 63 0 0 1 62 46l125 437a63 63 0 0 1-12 55z m-222-413h-403l-70 313h563z" horiz-adv-x="1000" />

<glyph glyph-name="wsu-i-check" unicode="&#xe811;" d="M979 709a63 63 0 0 1-88-5l-516-576-268 266a63 63 0 1 1-89-88l313-313h0s0 0 0 0a37 37 0 0 1 12-7l7-5a69 69 0 0 1 25-6h0a68 68 0 0 1 24 5l7 5a58 58 0 0 1 13 8s0 0 0 0h0l563 625a63 63 0 0 1-3 91z" horiz-adv-x="1000" />

<glyph glyph-name="wsu-i-comment" unicode="&#xe812;" d="M938 850h-875a63 63 0 0 1-63-62v-876a63 63 0 0 1 5-23 63 63 0 0 1 34-34 63 63 0 0 1 24-5 63 63 0 0 1 23 5 63 63 0 0 1 21 13l231 232h600a63 63 0 0 1 62 63v625a63 63 0 0 1-62 62z m-625-625a63 63 0 0 1-24-5 63 63 0 0 1-21-13l-143-144v662h750v-500z" horiz-adv-x="1000" />

<glyph glyph-name="wsu-i-coug-head" unicode="&#xe813;" d="M615-149s74-3 97 2c0 0 6 53-18 104-28-84-79-106-79-106z m195 307c-106-5-156 154-156 154s25-312 174-292c168 23 61 313 61 313s31-170-79-175z m-483-35l18 36 11-39c0-2 12-46 12-103 0-7 0-13 0-20 42-1 73 7 92 27 27 28 35 82 25 163-5 39-19 102-32 156-6 29-13 55-16 74-24 120 5 195 35 236 4 6 9 13 15 18-86-29-159-73-233-148l53-61 21 20c20-75 6-145 6-145-28 42-60 76-60 76l14 24-48 55-5 6c-58-80-77-145-77-145l41-37 24-22 8 23c45-83 4-160 4-160-7 28-36 69-36 69l12 38-62 56c-63-199-149-264-149-264s92 17 144 34c0 0-2-105-64-201h0c125 29 220 174 248 232z m532 507c0 3-1 5-1 8l144 29-3 15-147-18c-2 3-2 5-4 8l136 53-6 15-141-44c-9 14-18 25-27 28-54-4-102-8-147-14l28 132h-16l-43-136c-8-1-16-2-24-4l34 148h-16l-50-154c0 0-1 0-2 0-30-11-58-32-78-60-26-36-52-103-30-213 4-18 10-45 17-72 12-56 27-119 32-160 12-92 1-152-33-188-28-29-71-41-132-36l-16 2 2 14c1 12 1 22 1 33 0 20-1 39-3 55-34-56-95-135-173-180 132-3 260-27 317-34 6-1 11-1 17-2 1 0 3 0 4 0h2c13 0 26 0 38 2 0 0 0 0 1 0 1 0 3 0 5 1 73 12 137 67 120 193-20 149-47 245-53 317-8 87 68 223 202 163 0 0 19-16 44-73 0 0 9 32-4 92 5 17 8 34 8 52l147 6 0 16-150 5z m-149-54c-47 4-98-12-127-33-23-16-39-39-48-55-2 1-9 58 37 90 30 20 112 26 147 7 13-6 3-10-9-9z" horiz-adv-x="1008" />

<glyph glyph-name="wsu-i-discussion" unicode="&#xe814;" d="M938 850h-875a63 63 0 0 1-63-62v-876a63 63 0 0 1 5-23 63 63 0 0 1 34-34 63 63 0 0 1 24-5 63 63 0 0 1 23 5 63 63 0 0 1 21 13l231 232h600a63 63 0 0 1 62 63v625a63 63 0 0 1-62 62z m-625-625a63 63 0 0 1-24-5 63 63 0 0 1-21-13l-143-144v662h750v-500z m406 406h-438a63 63 0 0 1 0-125h438a63 63 0 0 1 0 125z m-94-187h-344a63 63 0 0 1 0-125h344a63 63 0 0 1 0 125z" horiz-adv-x="1000" />

<glyph glyph-name="wsu-i-document" unicode="&#xe815;" d="M870 561a63 63 0 0 1-13 21l-250 250a63 63 0 0 1-21 13 63 63 0 0 1-23 5h-375a63 63 0 0 1-63-62v-876a63 63 0 0 1 63-62h625a63 63 0 0 1 62 62v626a63 63 0 0 1-5 23z m-146-23h-161v161z m-286-63a63 63 0 0 1 62-62h250v-438h-500v750h188z" horiz-adv-x="1000" />

<glyph glyph-name="wsu-i-edit-write" unicode="&#xe816;" d="M982 644l-188 188a63 63 0 0 1-88 0l-688-688a63 63 0 0 1-18-44v-188a63 63 0 0 1 63-62h187a63 63 0 0 1 44 18l688 688a63 63 0 0 1 0 88z m-758-669h-99v99l469 469 99-99z m557 557l-99 99 68 68 99-99z" horiz-adv-x="1000" />

<glyph glyph-name="wsu-i-email" unicode="&#xe817;" d="M939 725h-875a63 63 0 0 1-62-62v-625a63 63 0 0 1 62-63h875a63 63 0 0 1 63 63v625a63 63 0 0 1-63 62z m-437-356l-273 225h542z m-371-263v408l329-275 9-5a38 38 0 0 1 7-3 55 55 0 0 1 26-6h0a53 53 0 0 1 24 6 38 38 0 0 1 7 3l9 5 329 275v-408z" horiz-adv-x="1000" />

<glyph glyph-name="wsu-i-favorite" unicode="&#xe819;" d="M719 663a158 158 0 0 0 112-45 146 146 0 0 0 46-104 148 148 0 0 0-46-106l-18-19-311-302-313 301-20 25a144 144 0 0 0 0 207 162 162 0 0 0 224 0l20-20 89-88 87 88 19 19a159 159 0 0 0 111 44m0 125a281 281 0 0 1-198-80l-19-20-21 20a287 287 0 0 1-397 0 270 270 0 0 1 0-388l20-20 354-345a63 63 0 0 1 44-18 63 63 0 0 1 43 18l353 345 20 20a270 270 0 0 1 0 388 283 283 0 0 1-199 80z" horiz-adv-x="1000" />

<glyph glyph-name="wsu-i-feedback" unicode="&#xe81a;" d="M1000 538a63 63 0 0 1-62 62h-188v188a63 63 0 0 1-62 62h-625a63 63 0 0 1-63-62v-447a63 63 0 0 1 63-62h187v-188a63 63 0 0 1 63-62h420l160-161a63 63 0 0 1 21-13 59 59 0 0 1 47 0 63 63 0 0 1 34 34 63 63 0 0 1 5 23z m-217-389a63 63 0 0 1-24 5h-384v321h500v-412l-72 72a52 52 0 0 1-20 14z m-658 255v321h500v-125h-312a63 63 0 0 1-63-62v-134z" horiz-adv-x="1000" />

<glyph glyph-name="wsu-i-home" unicode="&#xe81b;" d="M978 460l-437 375a63 63 0 0 1-82 0l-437-375a63 63 0 0 1 41-110v-438a63 63 0 0 1 62-62h750a63 63 0 0 1 63 62v438a63 63 0 0 1 40 110z m-478-235a63 63 0 0 1-62-62v-188h-250v463l312 267 313-267v-463h-250v188a63 63 0 0 1-63 62z" horiz-adv-x="1000" />

<glyph glyph-name="wsu-i-info" unicode="&#xe81c;" d="M500 725a375 375 0 1 0-375-375 375 375 0 0 0 375 375m0 125a500 500 0 1 1 500-500 500 500 0 0 1-500 500z m0-750a63 63 0 0 0-62 63v187a63 63 0 0 0 125 0v-187a63 63 0 0 0-63-63z" horiz-adv-x="1000" />

<glyph glyph-name="wsu-i-link" unicode="&#xe81d;" d="M375 163a63 63 0 0 0-44 18 63 63 0 0 0 0 88l250 250a63 63 0 1 0 88-88l-250-250a63 63 0 0 0-44-18z m419 16a63 63 0 0 0-44 109l63 62a222 222 0 0 1-313 313l-62-63a63 63 0 0 0-90 0 63 63 0 0 0 0 88l62 63a347 347 0 0 0 491-491l-63-62a63 63 0 0 0-44-19z m-448-329a347 347 0 0 0-245 592l63 62a63 63 0 1 0 86-91l-62-63a222 222 0 0 1 312-312l63 62a63 63 0 0 0 88 0 63 63 0 0 0 0-88l-63-63a346 346 0 0 0-242-99z" horiz-adv-x="1000" />

<glyph glyph-name="wsu-i-instagram" unicode="&#xe81e;" d="M500 658c100 0 112 0 151 0a204 204 0 0 0 70-13 125 125 0 0 0 72-71 204 204 0 0 0 12-70c0-40 0-51 0-151s0-112 0-152a204 204 0 0 0-12-70 125 125 0 0 0-72-71 204 204 0 0 0-70-12c-39 0-51 0-151 0s-112 0-151 0a204 204 0 0 0-70 12 125 125 0 0 0-71 71 204 204 0 0 0-13 70c0 40 0 52 0 152s0 111 0 151a204 204 0 0 0 13 70 125 125 0 0 0 71 69 204 204 0 0 0 70 12c39 0 51 0 151 0m0 70c-102 0-114 0-154 0a293 293 0 0 1-92-17 188 188 0 0 1-66-45 188 188 0 0 1-44-67 293 293 0 0 1-19-92c0-40 0-52 0-154s0-114 0-154a293 293 0 0 1 17-92 188 188 0 0 1 46-66 188 188 0 0 1 66-44 293 293 0 0 1 92-19c40 0 52 0 154 0s114 0 154 0a293 293 0 0 1 92 17 198 198 0 0 1 110 110 293 293 0 0 1 19 94c0 40 0 52 0 154s0 114 0 154a293 293 0 0 1-17 92 188 188 0 0 1-45 67 188 188 0 0 1-67 43 293 293 0 0 1-92 19c-40 0-52 0-154 0z m0-182a193 193 0 1 1 193-193 193 193 0 0 1-193 193z m0-318a125 125 0 1 0 125 125 125 125 0 0 0-125-125z" horiz-adv-x="1000" />

<glyph glyph-name="wsu-i-location" unicode="&#xe820;" d="M500 850a313 313 0 0 1-312-312c0-209 172-485 261-614a63 63 0 0 1 102 0c89 129 262 405 262 614a313 313 0 0 1-313 312z m-37-129a188 188 0 1 0-147-147 188 188 0 0 0 147 147z" horiz-adv-x="1000" />

<glyph glyph-name="wsu-i-map" unicode="&#xe821;" d="M1000 725s0 4 0 7a74 74 0 0 1 0 12l-6 12s0 5 0 7 0 0-3 0l-9 8a57 57 0 0 1-10 7l-11 3-12 0h-11l-7 0-13 0a69 69 0 0 1-12-5l-6-3-216-160-277 166h0l-4 0a53 53 0 0 1-10 4l-10 5h-8l-7 0a48 48 0 0 1-9 0l-5 0-9-5-8-4 0 0-313-250 0 0a63 63 0 0 1-8-10 41 41 0 0 1-6-10 53 53 0 0 1-4-10 49 49 0 0 1-6-24s0 0 0 0v-500a49 49 0 0 1 0-8 32 32 0 0 1 0-13 48 48 0 0 1 6-11 24 24 0 0 1 3-7s0 0 0 0a73 73 0 0 1 15-12l6-4a70 70 0 0 1 33-8h0a72 72 0 0 1 22 5l8 4a40 40 0 0 1 8 5l274 219 274-219a29 29 0 0 1 7-4l7-4a66 66 0 0 1 25-6h0a63 63 0 0 1 23 5l7 4 7 4 250 188 3 3 8 9a96 96 0 0 1 7 10l4 11c0 4 0 8 0 12s3 5 3 5z m-875-280l188 150v-340l-188-150z m313 169l187-112v-397l-187 150z m312-108l125 94v-406l-125-94z" horiz-adv-x="1000" />

<glyph glyph-name="wsu-i-menu" unicode="&#xe822;" d="M938 663h-875a63 63 0 0 0 0 125h875a63 63 0 0 0 0-125z m0-375h-875a63 63 0 0 0 0 125h875a63 63 0 0 0 0-125z m-375-376h-500a63 63 0 0 0 0 126h500a63 63 0 0 0 0-126z" horiz-adv-x="1000" />

<glyph glyph-name="wsu-i-minus-circle" unicode="&#xe823;" d="M719 288h-438a63 63 0 0 0 0 125h438a63 63 0 0 0 0-125z" horiz-adv-x="1000" />

<glyph glyph-name="wsu-i-minus" unicode="&#xe824;" d="M875 288h-750a63 63 0 0 0 0 125h750a63 63 0 0 0 0-125z" horiz-adv-x="1000" />

<glyph glyph-name="wsu-i-more" unicode="&#xe825;" d="" horiz-adv-x="1000" />

<glyph glyph-name="wsu-i-pause" unicode="&#xe826;" d="M344-25a63 63 0 0 0-63 63v625a63 63 0 0 0 125 0v-625a63 63 0 0 0-62-63z m312 0a63 63 0 0 0-62 63v625a63 63 0 0 0 125 0v-625a63 63 0 0 0-63-63z" horiz-adv-x="1000" />

<glyph glyph-name="wsu-i-phone" unicode="&#xe827;" d="M938 198a63 63 0 0 1-57 62l-206 21a63 63 0 0 1-66-43l-31-94a833 833 0 0 0-284 284l94 31a63 63 0 0 1 43 63l-21 209a63 63 0 0 1-62 57h-232a63 63 0 0 1-53-72 944 944 0 0 1 803-804h9a63 63 0 0 1 63 54 63 63 0 0 1 0 9z" horiz-adv-x="1000" />

<glyph glyph-name="wsu-i-next" unicode="&#xe828;" d="M125 725a63 63 0 0 0 31-8l562-313a63 63 0 0 0 0-108l-562-313a63 63 0 0 0-63 0 63 63 0 0 0-30 55v625a63 63 0 0 0 30 53 63 63 0 0 0 32 9z m434-375l-371 206v-412z m316 375a63 63 0 0 0 63-62v-625a63 63 0 0 0-125 0v625a63 63 0 0 0 62 62z" horiz-adv-x="1000" />

<glyph glyph-name="wsu-i-photos" unicode="&#xe829;" d="M500 475a125 125 0 1 0-125-125 125 125 0 0 0 125 125m0 125a250 250 0 1 1 250-250 250 250 0 0 1-250 250z m110 125l28-56 35-69h202v-562h-750v562h203l34 69 28 56h220m78 125h-375l-63-125h-125a125 125 0 0 1-125-125v-562a125 125 0 0 1 125-126h750a125 125 0 0 1 125 126v562a125 125 0 0 1-125 125h-125l-62 125z" horiz-adv-x="1000" />

<glyph glyph-name="wsu-i-play-circle" unicode="&#xe82a;" d="M713 303l-289-160a54 54 0 0 0-80 46v322a54 54 0 0 0 80 47l289-161a54 54 0 0 0 0-94z m-213 422a375 375 0 1 0-375-375 375 375 0 0 0 375 375m0 125a500 500 0 1 1 500-500 500 500 0 0 1-500 500z" horiz-adv-x="1000" />

<glyph glyph-name="wsu-i-plus-circle" unicode="&#xe82b;" d="M719 413h-156v156a63 63 0 0 1-125 0v-156h-157a63 63 0 0 1 0-125h157v-157a63 63 0 0 1 125 0v157h156a63 63 0 0 1 0 125z" horiz-adv-x="1000" />

<glyph glyph-name="wsu-i-play" unicode="&#xe82c;" d="M843 404l-562 313a63 63 0 0 1-63 0 63 63 0 0 1-30-54v-625a63 63 0 0 1 30-54 63 63 0 0 1 32-9 63 63 0 0 1 31 8l562 313a63 63 0 0 1 0 108z m-530-260v412l371-206z" horiz-adv-x="1000" />

<glyph glyph-name="wsu-i-plus" unicode="&#xe82d;" d="M875 413h-312v312a63 63 0 0 1-125 0v-312h-313a63 63 0 0 1 0-125h313v-313a63 63 0 0 1 125 0v313h312a63 63 0 0 1 0 125z" horiz-adv-x="1000" />

<glyph glyph-name="wsu-i-previous" unicode="&#xe82e;" d="M875-25a63 63 0 0 0-31 8l-562 313a63 63 0 0 0 0 108l562 313a63 63 0 0 0 63 0 63 63 0 0 0 31-54v-625a63 63 0 0 0-31-54 63 63 0 0 0-32-9z m-434 375l372-206v412z m-316-375a63 63 0 0 0-62 63v625a63 63 0 0 0 125 0v-625a63 63 0 0 0-63-63z" horiz-adv-x="1000" />

<glyph glyph-name="wsu-i-profile" unicode="&#xe82f;" d="M500 850a500 500 0 1 1 500-500 500 500 0 0 1-500 500z m0-125a375 375 0 0 0 375-375 370 370 0 0 0-69-215 566 566 0 0 1-612 0 370 370 0 0 0-69 215 375 375 0 0 0 375 375z m-216-681a441 441 0 0 0 432 0 375 375 0 0 0-432 0z m216 244a188 188 0 1 1-187 187 188 188 0 0 1 187-187z m0 250a63 63 0 1 0-62-63 63 63 0 0 0 62 63z" horiz-adv-x="1000" />

<glyph glyph-name="wsu-i-rate" unicode="&#xe830;" d="M258-150a98 98 0 0 0-94 125l73 234-199 157a99 99 0 0 0 63 177h227l78 240a99 99 0 0 0 188 0l79-240h228a99 99 0 0 0 63-177l-200-155 72-232a99 99 0 0 0-155-107l-181 139-181-140a100 100 0 0 0-61-21z m-82 568l206-160-74-237 192 147 188-146-71 235 207 161h-241l-83 250-82-250z" horiz-adv-x="1000" />

<glyph glyph-name="wsu-i-search" unicode="&#xe831;" d="M982-43l-250 250a408 408 0 1 1-88-88l250-250a63 63 0 0 1 89 0 63 63 0 0 1-1 88z m-857 487a281 281 0 1 0 281-281 282 282 0 0 0-281 281z" horiz-adv-x="1000" />

<glyph glyph-name="wsu-i-secure" unicode="&#xe832;" d="M500 69a63 63 0 0 1 63 62v63a63 63 0 0 1-125 0v-63a63 63 0 0 1 62-62z m283 406h-33v125a250 250 0 0 1-500 0v-125h-32a63 63 0 0 1-62-62v-219a345 345 0 0 1 344-344h0a344 344 0 0 1 344 344v219a63 63 0 0 1-61 62z m-408 125a125 125 0 0 0 250 0v-125h-250z m344-406a219 219 0 0 0-438 0v156h438z" horiz-adv-x="1000" />

<glyph glyph-name="wsu-i-send" unicode="&#xe833;" d="M625-150a63 63 0 0 0-56 34l-178 357-357 178h0a59 59 0 0 0-29 32 40 40 0 0 0-5 12h0a63 63 0 0 0 4 36 26 26 0 0 0 3 6 63 63 0 0 0 32 29h0l875 312a63 63 0 0 0 41 0h0l4 0a63 63 0 0 0 32-28 53 53 0 0 0 9-15 63 63 0 0 0 0-32 15 15 0 0 0 0-5l-312-875a63 63 0 0 0-55-42z m-111 425l102-204 169 476z m-293 188l204-99 272 271z" horiz-adv-x="1000" />

<glyph glyph-name="wsu-i-settings" unicode="&#xe834;" d="M979 419l-120 40a418 418 0 0 1-28 67l57 113a31 31 0 0 1-6 36l-57 57a31 31 0 0 1-36 6l-113-57a367 367 0 0 1-67 28l-40 120a31 31 0 0 1-29 21h-80a31 31 0 0 1-29-21l-40-120a367 367 0 0 1-67-28l-113 57a31 31 0 0 1-36-6l-57-57a31 31 0 0 1-5-36l56-113a418 418 0 0 1-28-67l-120-40a31 31 0 0 1-21-29v-80a31 31 0 0 1 21-29l120-40a418 418 0 0 1 28-67l-56-113a31 31 0 0 1 5-36l57-57a31 31 0 0 1 36-6l113 57a418 418 0 0 1 67-28l40-120a31 31 0 0 1 29-21h80a31 31 0 0 1 29 21l40 120a418 418 0 0 1 67 28l113-57a31 31 0 0 1 36 6l57 57a31 31 0 0 1 6 36l-57 113a418 418 0 0 1 28 67l120 40a31 31 0 0 1 21 29v80a31 31 0 0 1-21 29z m-479-319a250 250 0 1 0 250 250 250 250 0 0 0-250-250z" horiz-adv-x="1000" />

<glyph glyph-name="wsu-i-stop" unicode="&#xe835;" d="M750 600v-500h-500v500h500m63 125h-625a63 63 0 0 1-63-62v-625a63 63 0 0 1 63-63h625a63 63 0 0 1 62 63v625a63 63 0 0 1-62 62z" horiz-adv-x="1000" />

<glyph glyph-name="wsu-i-time" unicode="&#xe836;" d="M500 725a375 375 0 1 0-375-375 375 375 0 0 0 375 375m0 125a500 500 0 1 1 500-500 500 500 0 0 1-500 500z m156-687a63 63 0 0 0-38 13l-180 144v218a63 63 0 0 0 125 0v-158l132-106a63 63 0 0 0 10-88 63 63 0 0 0-49-23z" horiz-adv-x="1000" />

<glyph glyph-name="wsu-i-trash" unicode="&#xe837;" d="M906 663h-156v62a125 125 0 0 1-125 125h-250a125 125 0 0 1-125-125v-62h-156a63 63 0 0 1 0-125h37l62-688h614l62 688h37a63 63 0 0 1 0 125z m-531 62h250v-62h-250z m318-750h-386l-51 563h488z" horiz-adv-x="1000" />

<glyph glyph-name="wsu-i-twitter" unicode="&#xe838;" d="M848 529c0-8 0-16 0-24a508 508 0 0 0-510-511 510 510 0 0 0-275 81c13 0 28 0 43 0a359 359 0 0 1 222 77 179 179 0 0 0-167 125 151 151 0 0 1 33-4 171 171 0 0 1 48 7 179 179 0 0 0-144 173v0a172 172 0 0 1 81-22 178 178 0 0 0-80 152 181 181 0 0 0 26 90 513 513 0 0 1 370-188 219 219 0 0 0-4 41 179 179 0 0 0 312 125 359 359 0 0 1 114 44 181 181 0 0 0-79-99 354 354 0 0 1 100 25 370 370 0 0 0-90-92z" horiz-adv-x="1000" />

<glyph glyph-name="wsu-i-video-slideshow" unicode="&#xe839;" d="M938 722h-875a63 63 0 0 1-63-63v-621a63 63 0 0 1 63-63h875a63 63 0 0 1 62 63v621a63 63 0 0 1-62 63z m-63-125v-497h-750v497z m-422-368l168 94a31 31 0 0 1 0 55l-168 93a32 32 0 0 1-47-27v-188a32 32 0 0 1 47-27z" horiz-adv-x="1000" />

<glyph glyph-name="wsu-i-x-circle" unicode="&#xe83a;" d="M588 350l144 143a63 63 0 1 1-89 89l-143-144-143 144a63 63 0 0 1-89-89l144-143-144-143a63 63 0 0 1 0-89 63 63 0 0 1 89 0l143 144 143-144a63 63 0 0 1 89 0 63 63 0 0 1 0 89z" horiz-adv-x="1000" />

<glyph glyph-name="wsu-i-x" unicode="&#xe83b;" d="M588 350l269 268a63 63 0 1 1-89 89l-268-269-268 269a63 63 0 0 1-89-89l269-268-269-268a63 63 0 0 1 0-89 63 63 0 0 1 89 0l268 269 268-268a63 63 0 0 1 45-19 63 63 0 0 1 44 19 63 63 0 0 1 0 88z" horiz-adv-x="1000" />
</font>
</defs>
</svg>
