<svg width="512" height="508" viewBox="0 0 512 508" fill="none" xmlns="http://www.w3.org/2000/svg">
<style>
	.wsu-favicon {
		fill: #CA1237;
	}
	@media (prefers-color-scheme: dark) {
		.wsu-favicon {
			fill: white;
		}
	}
</style>
<path class="wsu-favicon" d="M312.188 507.189C312.188 507.189 338.088 496.162 352.238 453.335C364.749 479.424 361.438 506.226 361.438 506.226C350.033 508.828 312.188 507.189 312.188 507.189Z"/>
<path class="wsu-favicon" d="M420.429 421.135C344.755 431.572 331.766 273.035 331.766 273.035C331.766 273.035 357.196 354.175 411.171 351.322C467.081 348.422 451.221 262.311 451.221 262.311C451.221 262.311 505.587 409.413 420.429 421.135Z"/>
<path class="wsu-favicon" d="M72.682 384.942C46.714 393.731 0.0010376 402.121 0.0010376 402.121C0.0010376 402.121 43.208 369.411 75.458 268.48L106.511 296.549L100.732 315.849C100.732 315.849 115.543 336.985 119.238 351.349C119.238 351.349 139.645 312.089 117.216 269.974L113.208 281.739L101.044 270.712L80.169 251.607C80.169 251.607 89.609 218.576 119.082 178.084L121.893 181.199L145.831 209.025L138.569 221.12C149.743 233.149 159.925 246.064 169.014 259.738C169.014 259.738 176.407 224.438 166.143 186.206L155.305 196.325L128.678 165.485C166.454 127.838 203.129 104.985 246.778 90.314C244.045 93.2742 241.523 96.4226 239.231 99.736C224.351 120.681 209.35 158.501 221.479 219.529C223.345 229.064 226.528 242.539 229.817 256.794C236.359 284.67 243.617 316.261 246.181 336.155C251.361 377.611 247.186 404.755 233.357 419.109C223.691 429.156 208.117 433.599 186.419 432.809C186.549 429.33 186.671 426.075 186.671 422.856C186.729 405.214 184.652 387.629 180.484 370.486L175.114 350.401L166.083 369.141C151.896 398.735 103.544 472.284 40.493 486.687C40.493 486.687 40.393 486.687 40.393 486.739C72.021 438.189 72.682 384.942 72.682 384.942Z"/>
<path class="wsu-favicon" d="M257.8 504.735C256.646 504.735 255.465 504.722 254.293 504.696C254.071 504.704 253.849 504.691 253.629 504.657C252.87 504.657 252.109 504.617 251.373 504.58C248.022 504.319 245.297 504.036 242.798 503.689C237.514 502.963 231.054 501.981 223.575 500.844C191.051 495.9 136.673 487.631 81.932 486.323C126.832 460.04 157.984 413.84 169.295 395.2C170.504 404.444 171.118 413.757 171.132 423.08C171.132 429.115 170.915 434.461 170.468 439.424L169.781 447.124L177.481 447.819C182.259 448.23 186.881 448.439 191.227 448.439C215.02 448.439 232.436 442.367 244.472 429.875C261.998 411.695 267.407 381.305 261.495 334.235C258.906 313.358 251.116 280.057 244.855 253.3C241.461 238.542 238.497 225.588 236.609 216.5C225.577 160.84 238.796 127.089 251.828 108.576C261.978 94.276 276.113 83.518 291.628 78.287C291.938 78.2855 292.247 78.2489 292.549 78.178L317.878 0H325.898L308.781 75.088C314.023 74.232 317.644 73.66 320.881 73.167L342.858 3.85H350.792L336.447 71.012C357.375 68.324 381.147 66.012 411.247 63.734C415.605 65.546 420.378 70.584 424.694 77.922L496.455 55.746L499.086 63.469L430.479 90.128C431.072 91.5626 431.588 93.0276 432.025 94.517L507.097 85.123L508.332 93.2L435.532 107.724C435.794 109.192 436.032 110.632 436.227 111.847L512.002 114.268L511.878 122.451L437.243 125.629C437.394 134.47 436.069 143.274 433.323 151.679C440.163 181.779 435.518 198.568 435.47 198.734C423.096 169.96 413.522 161.634 413.426 161.557C402.193 156.557 391.24 154.028 380.876 154.028C363.19 154.028 347.076 161.439 334.269 175.46C317.957 193.322 308.424 221.024 310.548 244.392C312.141 261.911 315.962 281.781 320.799 306.938C325.842 333.165 332.119 365.805 337.464 405.338C341.511 434.946 337.076 458.7 324.282 475.938C313.582 490.352 297.082 499.829 276.564 503.338C276.32 503.373 276.079 503.411 275.838 503.45C275.251 503.543 274.685 503.634 274.104 503.682C273.913 503.757 273.708 503.789 273.504 503.775C268.296 504.437 263.05 504.758 257.8 504.735V504.735ZM334.256 128.9C316.376 128.9 298.738 132.717 290.368 138.4C276.612 147.823 272.277 161.34 271.062 171.02C270.143 178.351 270.992 183.792 271.253 184.088C276.004 175.737 284.11 164.088 295.671 156.016C310.532 145.606 333.252 138.88 353.552 138.88C355.86 138.88 358.163 138.966 360.396 139.134C361.12 139.196 361.839 139.227 362.531 139.227C365.716 139.227 367.85 138.596 368.098 137.58C368.298 136.75 367.242 135.702 365.035 134.55C358.132 130.909 347.204 128.9 334.256 128.9Z"/>
</svg>
