<svg id="Layer_1" data-name="Layer 1" xmlns="http://www.w3.org/2000/svg" viewBox="0 0 16 16"><defs><style>.cls-1{fill:#ee1376;}.cls-2{fill:none;}</style></defs><title>instagram-colr</title><path class="cls-1" d="M8,4.92A3.08,3.08,0,1,0,11.08,8,3.08,3.08,0,0,0,8,4.92ZM8,10a2,2,0,1,1,2-2A2,2,0,0,1,8,10Z"/><circle class="cls-1" cx="11.2" cy="4.8" r="0.72"/><path class="cls-1" d="M10.6,3.1a2.3,2.3,0,0,1,2.3,2.3v5.2a2.3,2.3,0,0,1-2.3,2.3H5.4a2.3,2.3,0,0,1-2.3-2.3V5.4A2.3,2.3,0,0,1,5.4,3.1h5.2m0-1.1H5.4A3.4,3.4,0,0,0,2,5.4v5.2A3.4,3.4,0,0,0,5.4,14h5.2A3.4,3.4,0,0,0,14,10.6V5.4A3.4,3.4,0,0,0,10.6,2Z"/><rect class="cls-2" width="16" height="16"/></svg>