<svg id="Layer_1" data-name="Layer 1" xmlns="http://www.w3.org/2000/svg" viewBox="0 0 16 16"><defs><style>.cls-1{fill:none;}.cls-2{fill:#404040;}</style></defs><title>settings-drk</title><rect class="cls-1" width="16" height="16"/><path class="cls-2" d="M15.66,6.89l-1.92-.64a6.68,6.68,0,0,0-.44-1.07l.9-1.81a.49.49,0,0,0-.09-.57l-.91-.91a.49.49,0,0,0-.57-.09l-1.81.9a5.87,5.87,0,0,0-1.07-.44L9.11.34A.5.5,0,0,0,8.64,0H7.36a.5.5,0,0,0-.47.34L6.25,2.26a5.87,5.87,0,0,0-1.07.44L3.37,1.8a.49.49,0,0,0-.57.09l-.91.91a.49.49,0,0,0-.09.57l.9,1.81a6.68,6.68,0,0,0-.44,1.07L.34,6.89A.49.49,0,0,0,0,7.36V8.64a.5.5,0,0,0,.34.47l1.92.64a6.68,6.68,0,0,0,.44,1.07l-.9,1.81a.49.49,0,0,0,.09.57l.91.91a.49.49,0,0,0,.57.09l1.81-.9a6.68,6.68,0,0,0,1.07.44l.64,1.92a.5.5,0,0,0,.47.34H8.64a.5.5,0,0,0,.47-.34l.64-1.92a6.68,6.68,0,0,0,1.07-.44l1.81.9a.49.49,0,0,0,.57-.09l.91-.91a.49.49,0,0,0,.09-.57l-.9-1.81a6.68,6.68,0,0,0,.44-1.07l1.92-.64A.5.5,0,0,0,16,8.64V7.36A.49.49,0,0,0,15.66,6.89ZM8,12a4,4,0,1,1,4-4A4,4,0,0,1,8,12Z" transform="translate(0 0)"/></svg>