<svg id="Layer_1" data-name="Layer 1" xmlns="http://www.w3.org/2000/svg" viewBox="0 0 16 16"><defs><style>.cls-1{fill:none;opacity:0.3;}.cls-2{fill:#404040;}</style></defs><title>time-drk</title><rect class="cls-1" width="16" height="16"/><path class="cls-2" d="M8,2A6,6,0,1,1,2,8,6,6,0,0,1,8,2M8,0a8,8,0,1,0,8,8A8,8,0,0,0,8,0Z" transform="translate(0 0)"/><path class="cls-2" d="M10.5,11a1,1,0,0,1-.62-.22L7,8.48V5A1,1,0,0,1,9,5V7.52l2.12,1.7a1,1,0,0,1,.16,1.4A1,1,0,0,1,10.5,11Z" transform="translate(0 0)"/></svg>