<svg id="Layer_1" data-name="Layer 1" xmlns="http://www.w3.org/2000/svg" viewBox="0 0 16 16"><defs><style>.cls-1{fill:#404040;}.cls-2{fill:none;}</style></defs><title>profile-drk</title><path class="cls-1" d="M8,0a8,8,0,1,0,8,8A8,8,0,0,0,8,0ZM8,2a6,6,0,0,1,6,6,5.92,5.92,0,0,1-1.1,3.44,9.06,9.06,0,0,0-9.8,0A5.92,5.92,0,0,1,2,8,6,6,0,0,1,8,2ZM4.55,12.9a7.06,7.06,0,0,1,6.9,0,6,6,0,0,1-6.9,0Z" transform="translate(0 0)"/><path class="cls-1" d="M8,9A3,3,0,1,0,5,6,3,3,0,0,0,8,9ZM8,5A1,1,0,1,1,7,6,1,1,0,0,1,8,5Z" transform="translate(0 0)"/><rect class="cls-2" width="16" height="16"/></svg>