<svg id="Layer_1" data-name="Layer 1" xmlns="http://www.w3.org/2000/svg" viewBox="0 0 16 16"><defs><style>.cls-1{fill:none;}.cls-2{fill:#404040;}</style></defs><title>feedback-drk</title><rect class="cls-1" width="16" height="16"/><path class="cls-2" d="M16,5a1,1,0,0,0-1-1H12V1a1,1,0,0,0-1-1H1A1,1,0,0,0,0,1V8.14a1,1,0,0,0,1,1H4v3a1,1,0,0,0,1,1h6.73l2.56,2.57a1,1,0,0,0,.33.21.94.94,0,0,0,.76,0,1,1,0,0,0,.54-.54A1,1,0,0,0,16,15Zm-3.48,6.22a1,1,0,0,0-.38-.08H6V6h8v6.59l-1.15-1.15A.83.83,0,0,0,12.52,11.22ZM2,7.14V2h8V4H5A1,1,0,0,0,4,5V7.14Z" transform="translate(0 0)"/></svg>