<svg id="Layer_1" data-name="Layer 1" xmlns="http://www.w3.org/2000/svg" viewBox="0 0 16 16"><defs><style>.cls-1{fill:none;}.cls-2{fill:#404040;}</style></defs><title>basket-drk</title><rect class="cls-1" width="16" height="16"/><path class="cls-2" d="M16,7s0,0,0,0a.71.71,0,0,0,0-.2c0-.06,0-.12,0-.18l-.11-.15a.88.88,0,0,0-.12-.15.71.71,0,0,0-.14-.1.69.69,0,0,0-.19-.1l0,0a.77.77,0,0,0-.15,0L15,6H1L.85,6a.77.77,0,0,0-.15,0l0,0a.69.69,0,0,0-.19.1.71.71,0,0,0-.14.1.88.88,0,0,0-.12.15L.1,6.57c0,.06,0,.12,0,.18A.71.71,0,0,0,0,7S0,7,0,7a.8.8,0,0,0,0,.15.77.77,0,0,0,0,.15l2.5,8s0,0,0,0l.06.11a.91.91,0,0,0,.13.19l.09.09a.85.85,0,0,0,.19.14l.11,0A1,1,0,0,0,3.5,16h9a1,1,0,0,0,.35-.07l.11,0a.85.85,0,0,0,.19-.14l.09-.09a.91.91,0,0,0,.13-.19l.06-.11s0,0,0,0l2.5-8a.77.77,0,0,0,0-.15A.8.8,0,0,0,16,7Zm-4.23,7H4.23L2.36,8H13.64Z" transform="translate(0 0)"/><path class="cls-2" d="M8,5A1,1,0,0,0,9,4V1A1,1,0,0,0,7,1V4A1,1,0,0,0,8,5Z" transform="translate(0 0)"/></svg>