<svg id="Layer_1" data-name="Layer 1" xmlns="http://www.w3.org/2000/svg" viewBox="0 0 16 16"><defs><style>.cls-1{fill:none;}.cls-2{fill:#404040;}</style></defs><title>photos-drk</title><rect class="cls-1" width="16" height="16"/><path class="cls-2" d="M8,6A2,2,0,1,1,6,8,2,2,0,0,1,8,6M8,4a4,4,0,1,0,4,4A4,4,0,0,0,8,4Z" transform="translate(0 0)"/><path class="cls-2" d="M9.76,2l.45.89L10.76,4H14v9H2V4H5.24l.55-1.11L6.24,2H9.76M11,0H5L4,2H2A2,2,0,0,0,0,4v9a2,2,0,0,0,2,2H14a2,2,0,0,0,2-2V4a2,2,0,0,0-2-2H12L11,0Z" transform="translate(0 0)"/></svg>