<svg id="Layer_1" data-name="Layer 1" xmlns="http://www.w3.org/2000/svg" viewBox="0 0 16 16"><defs><style>.cls-1{fill:none;}.cls-2{fill:#404040;}</style></defs><title>calendar-drk</title><rect class="cls-1" width="16" height="16"/><path class="cls-2" d="M15,2H13V1a1,1,0,0,0-2,0V2H5V1A1,1,0,0,0,3,1V2H1A1,1,0,0,0,0,3V15a1,1,0,0,0,1,1H11a1,1,0,0,0,.7-.29h0l4-4h0s0,0,0,0a.92.92,0,0,0,.2-.31,1.16,1.16,0,0,0,.07-.31S16,11,16,11V3A1,1,0,0,0,15,2ZM11,13.58V11h2.56ZM14,4V9H10a1,1,0,0,0-1,1v4H2V4Z" transform="translate(0 0)"/></svg>