<svg id="Layer_1" data-name="Layer 1" xmlns="http://www.w3.org/2000/svg" viewBox="0 0 16 16"><defs><style>.cls-1{fill:none;}.cls-2{fill:#404040;}</style></defs><title>shopping-drk</title><rect class="cls-1" width="16" height="16"/><circle class="cls-2" cx="5.5" cy="14" r="1"/><circle class="cls-2" cx="12.5" cy="14" r="1"/><path class="cls-2" d="M15.8,3.4A1,1,0,0,0,15,3H4.25L4,1.78A1,1,0,0,0,3,1H1A1,1,0,0,0,1,3H2.2l.26,1.19a.11.11,0,0,1,0,0l1.55,7A1,1,0,0,0,5,12h8a1,1,0,0,0,1-.73l2-7A1,1,0,0,0,15.8,3.4ZM12.25,10H5.8L4.69,5h9Z" transform="translate(0 0)"/></svg>