<svg id="Layer_1" data-name="Layer 1" xmlns="http://www.w3.org/2000/svg" viewBox="0 0 16 16"><defs><style>.cls-1{fill:#404040;}.cls-2{fill:none;}</style></defs><title>link-drk</title><path class="cls-1" d="M6,11a1,1,0,0,1-.71-.29,1,1,0,0,1,0-1.42l4-4a1,1,0,1,1,1.42,1.42l-4,4A1,1,0,0,1,6,11Z" transform="translate(0)"/><path class="cls-1" d="M12.7,10.73A1,1,0,0,1,12,9l1-1a3.55,3.55,0,0,0-5-5L7,4A1,1,0,0,1,5.56,4a1,1,0,0,1,0-1.41l1-1a5.55,5.55,0,0,1,7.85,7.85l-1,1A1,1,0,0,1,12.7,10.73Z" transform="translate(0)"/><path class="cls-1" d="M5.54,16A5.55,5.55,0,0,1,1.62,6.53l1-1A1,1,0,1,1,4,7l-1,1a3.55,3.55,0,0,0,5,5l1-1a1,1,0,0,1,1.41,0,1,1,0,0,1,0,1.41l-1,1A5.53,5.53,0,0,1,5.54,16Z" transform="translate(0)"/><rect class="cls-2" width="16" height="16"/></svg>