<svg id="Layer_1" data-name="Layer 1" xmlns="http://www.w3.org/2000/svg" viewBox="0 0 16 16"><defs></defs><title>send-drk</title><path d="M10,16a1,1,0,0,1-.89-.55L6.25,9.75.55,6.89h0a.94.94,0,0,1-.47-.51A.64.64,0,0,1,0,6.2H0a1,1,0,0,1,.06-.59.41.41,0,0,1,.05-.09,1,1,0,0,1,.52-.46h0l14-5a1,1,0,0,1,.65,0h0l.06,0a1,1,0,0,1,.51.45A.85.85,0,0,1,16,.76a1,1,0,0,1,0,.51.24.24,0,0,1,0,.08l-5,14a1,1,0,0,1-.88.66ZM8.22,9.2l1.63,3.26,2.71-7.61Zm-4.68-3L6.8,7.78l4.35-4.34Z" transform="translate(0 0)"/><rect width="16" height="16"/></svg>
