<svg id="Layer_1" data-name="Layer 1" xmlns="http://www.w3.org/2000/svg" viewBox="0 0 16 16"><defs><style>.cls-1{fill:none;}.cls-2{fill:#404040;}</style></defs><title>video-slideshow-drk</title><rect class="cls-1" width="16" height="16"/><path class="cls-2" d="M15,2.05H1a1,1,0,0,0-1,1V13a1,1,0,0,0,1,1H15a1,1,0,0,0,1-1V3.05A1,1,0,0,0,15,2.05Zm-1,2V12H2V4.05Z" transform="translate(0 0)"/><path class="cls-2" d="M7.25,9.94l2.69-1.5a.5.5,0,0,0,0-.88L7.25,6.06a.51.51,0,0,0-.75.44v3A.51.51,0,0,0,7.25,9.94Z" transform="translate(0 0)"/></svg>