<svg id="Layer_1" data-name="Layer 1" xmlns="http://www.w3.org/2000/svg" viewBox="0 0 16 16"><defs><style>.cls-1{fill:none;opacity:0.3;}.cls-2{fill:#404040;}</style></defs><title>alarm-dark</title><rect class="cls-1" width="16" height="16"/><path class="cls-2" d="M8,3a5.5,5.5,0,1,1-5.5,5.5A5.5,5.5,0,0,1,8,3M8,1a7.5,7.5,0,1,0,7.5,7.5A7.5,7.5,0,0,0,8,1Z" transform="translate(0.03 0)"/><path class="cls-2" d="M10.47,11.5a1,1,0,0,1-.62-.22L7,9V5.5a1,1,0,1,1,2,0V8l2.13,1.7a1,1,0,0,1,.15,1.4A1,1,0,0,1,10.47,11.5Z" transform="translate(0.03 0)"/><path class="cls-2" d="M15,3a1,1,0,0,1-.71-.3l-1-1a1,1,0,0,1,0-1.41,1,1,0,0,1,1.42,0l1,1A1,1,0,0,1,15,3Z" transform="translate(0.03 0)"/><path class="cls-2" d="M1,3a1,1,0,0,1-.71-.3,1,1,0,0,1,0-1.41l1-1a1,1,0,0,1,1.42,0,1,1,0,0,1,0,1.41l-1,1A1,1,0,0,1,1,3Z" transform="translate(0.03 0)"/></svg>