<svg id="Layer_1" data-name="Layer 1" xmlns="http://www.w3.org/2000/svg" viewBox="0 0 16 16"><defs><style>.cls-1{fill:none;}.cls-2{fill:#404040;}</style></defs><title>secure-drk</title><rect class="cls-1" width="16" height="16"/><path class="cls-2" d="M8,12.5a1,1,0,0,0,1-1v-1a1,1,0,0,0-2,0v1A1,1,0,0,0,8,12.5Z" transform="translate(0 0)"/><path class="cls-2" d="M12.53,6H12V4A4,4,0,0,0,4,4V6H3.49a1,1,0,0,0-1,1V10.5A5.52,5.52,0,0,0,8,16H8a5.51,5.51,0,0,0,5.5-5.5V7A1,1,0,0,0,12.53,6ZM6,4a2,2,0,0,1,4,0V6H6Zm5.5,6.5a3.5,3.5,0,0,1-7,0V8h7Z" transform="translate(0 0)"/></svg>