<svg id="Layer_1" data-name="Layer 1" xmlns="http://www.w3.org/2000/svg" viewBox="0 0 16 16"><defs><style>.cls-1{fill:none;}.cls-2{fill:#404040;}</style></defs><title>twitter-drk</title><rect class="cls-1" width="16" height="16"/><path class="cls-2" d="M13.57,5.14c0,.13,0,.25,0,.38A8.12,8.12,0,0,1,5.4,13.69,8.16,8.16,0,0,1,1,12.4c.22,0,.45,0,.69,0a5.75,5.75,0,0,0,3.56-1.23,2.87,2.87,0,0,1-2.68-2,2.42,2.42,0,0,0,.54.06,2.74,2.74,0,0,0,.76-.11A2.86,2.86,0,0,1,1.56,6.35v0a2.75,2.75,0,0,0,1.3.36A2.85,2.85,0,0,1,1.59,4.28,2.89,2.89,0,0,1,2,2.84a8.2,8.2,0,0,0,5.92,3,3.51,3.51,0,0,1-.07-.66,2.87,2.87,0,0,1,5-2,5.74,5.74,0,0,0,1.82-.7,2.89,2.89,0,0,1-1.26,1.59A5.67,5.67,0,0,0,15,3.66,5.92,5.92,0,0,1,13.57,5.14Z" transform="translate(0 0)"/></svg>