<svg id="Layer_1" data-name="Layer 1" xmlns="http://www.w3.org/2000/svg" viewBox="0 0 16 16"><defs><style>.cls-1{fill:none;}.cls-2{fill:#404040;}</style></defs><title>previous-drk</title><rect class="cls-1" width="16" height="16" transform="translate(16 16) rotate(180)"/><path class="cls-2" d="M14,14a1,1,0,0,1-.49-.13l-9-5a1,1,0,0,1,0-1.74l9-5a1,1,0,0,1,1,0A1,1,0,0,1,15,3V13a1,1,0,0,1-.49.86A1,1,0,0,1,14,14ZM7.06,8,13,11.3V4.7Z" transform="translate(0)"/><path class="cls-2" d="M2,14a1,1,0,0,1-1-1V3A1,1,0,0,1,3,3V13A1,1,0,0,1,2,14Z" transform="translate(0)"/></svg>