<svg id="Layer_1" data-name="Layer 1" xmlns="http://www.w3.org/2000/svg" viewBox="0 0 16 16"><defs><style>.cls-1{fill:none;opacity:0.3;}.cls-2{fill:#404040;}</style></defs><title>favorite-drk</title><rect class="cls-1" width="16" height="16"/><path class="cls-2" d="M11.48,3a2.52,2.52,0,0,1,1.78.71A2.34,2.34,0,0,1,14,5.38a2.37,2.37,0,0,1-.73,1.69l-.3.3L8,12.21,3,7.39,2.68,7a2.3,2.3,0,0,1,0-3.32,2.59,2.59,0,0,1,3.57,0L6.58,4,8,5.41,9.4,4l.29-.3A2.54,2.54,0,0,1,11.48,3m0-2A4.49,4.49,0,0,0,8.3,2.28L8,2.6l-.33-.32a4.59,4.59,0,0,0-6.36,0,4.32,4.32,0,0,0,0,6.2l.32.32,5.67,5.52a1,1,0,0,0,.7.28,1,1,0,0,0,.69-.28L14.34,8.8l.32-.32a4.32,4.32,0,0,0,0-6.2A4.53,4.53,0,0,0,11.48,1Z" transform="translate(0.03 0)"/></svg>