<svg id="Layer_1" data-name="Layer 1" xmlns="http://www.w3.org/2000/svg" viewBox="0 0 16 16"><defs><style>.cls-1{fill:none;}.cls-2{fill:#404040;}.cls-3,.cls-4{fill:#fff;}.cls-3{fill-rule:evenodd;}</style></defs><title>linkedin-drk</title><rect class="cls-1" width="16" height="16"/><rect class="cls-2" x="2" y="2" width="12" height="12" rx="1"/><path class="cls-3" d="M12.31,12.12H10.46v-3c0-.75-.27-1.26-.94-1.26a1,1,0,0,0-.94.67A1.26,1.26,0,0,0,8.52,9v3.11H6.67s0-5,0-5.56H8.52v.79a1.82,1.82,0,0,1,1.66-.92c1.22,0,2.13.79,2.13,2.5Z" transform="translate(0 0)"/><rect class="cls-4" x="3.8" y="6.56" width="1.85" height="5.56"/><circle class="cls-4" cx="4.72" cy="4.78" r="1.03"/></svg>