<svg id="Layer_1" data-name="Layer 1" xmlns="http://www.w3.org/2000/svg" viewBox="0 0 16 16"><defs><style>.cls-1{fill:none;}.cls-2{fill:#404040;}</style></defs><title>instagram-drk</title><rect class="cls-1" width="16" height="16"/><path class="cls-2" d="M8,3.08c1.6,0,1.79,0,2.42,0a3.26,3.26,0,0,1,1.12.2,2,2,0,0,1,1.14,1.14,3.26,3.26,0,0,1,.2,1.12c0,.63,0,.82,0,2.42s0,1.79,0,2.42a3.26,3.26,0,0,1-.2,1.12,2,2,0,0,1-1.14,1.14,3.26,3.26,0,0,1-1.12.2c-.63,0-.82,0-2.42,0s-1.79,0-2.42,0a3.26,3.26,0,0,1-1.12-.2,2,2,0,0,1-1.14-1.14,3.26,3.26,0,0,1-.2-1.12c0-.63,0-.82,0-2.42s0-1.79,0-2.42a3.26,3.26,0,0,1,.2-1.12A2,2,0,0,1,4.46,3.32a3.26,3.26,0,0,1,1.12-.2c.63,0,.82,0,2.42,0M8,2C6.37,2,6.17,2,5.53,2a4.69,4.69,0,0,0-1.46.27A3,3,0,0,0,3,3a3,3,0,0,0-.7,1.06A4.69,4.69,0,0,0,2,5.53C2,6.17,2,6.37,2,8s0,1.83,0,2.47a4.69,4.69,0,0,0,.27,1.46A3,3,0,0,0,3,13a3,3,0,0,0,1.06.7A4.69,4.69,0,0,0,5.53,14c.64,0,.84,0,2.47,0s1.83,0,2.47,0a4.69,4.69,0,0,0,1.46-.27,3.17,3.17,0,0,0,1.76-1.76A4.69,4.69,0,0,0,14,10.47c0-.64,0-.84,0-2.47s0-1.83,0-2.47a4.69,4.69,0,0,0-.27-1.46A3,3,0,0,0,13,3a3,3,0,0,0-1.06-.7A4.69,4.69,0,0,0,10.47,2C9.83,2,9.63,2,8,2Z" transform="translate(0 0)"/><path class="cls-2" d="M8,4.92A3.08,3.08,0,1,0,11.08,8,3.08,3.08,0,0,0,8,4.92ZM8,10a2,2,0,1,1,2-2A2,2,0,0,1,8,10Z" transform="translate(0 0)"/><circle class="cls-2" cx="11.2" cy="4.8" r="0.72"/></svg>