<svg id="Layer_1" data-name="Layer 1" xmlns="http://www.w3.org/2000/svg" viewBox="0 0 16 16"><defs><style>.cls-1{fill:none;}.cls-2{fill:#404040;}</style></defs><title>play-circle-drk</title><rect class="cls-1" width="16" height="16"/><path class="cls-2" d="M11.4,8.75,6.78,11.32a.86.86,0,0,1-1.28-.75V5.43a.86.86,0,0,1,1.28-.75L11.4,7.25A.86.86,0,0,1,11.4,8.75Z" transform="translate(0 0)"/><path class="cls-2" d="M8,2A6,6,0,1,1,2,8,6,6,0,0,1,8,2M8,0a8,8,0,1,0,8,8A8,8,0,0,0,8,0Z" transform="translate(0 0)"/></svg>