<svg id="Layer_1" data-name="Layer 1" xmlns="http://www.w3.org/2000/svg" viewBox="0 0 16 16"><defs><style>.cls-1{fill:none;}.cls-2{fill:#404040;}</style></defs><title>map-drk</title><path class="cls-2" d="M11,15a1,1,0,0,1-.64-.23L6,11.28l-4.38,3.5a1,1,0,0,1-1.05.12A1,1,0,0,1,0,14V6a1,1,0,0,1,.38-.78l5-4,0,0A1.14,1.14,0,0,1,5.8,1h0L6,1H6a1,1,0,0,1,.51.14h0L10.94,3.8,14.4,1.2a1,1,0,0,1,1-.09A1,1,0,0,1,16,2v9a1,1,0,0,1-.4.8l-4,3,0,0h0A1,1,0,0,1,11,15Zm1-9.5V12l2-1.5V4Zm-5,4,3,2.4V5.57L7,3.77Zm-5-3v5.44l3-2.4V4.08Z" transform="translate(0)"/></svg>
