<svg id="Layer_1" data-name="Layer 1" xmlns="http://www.w3.org/2000/svg" viewBox="0 0 16 16"><defs></defs><title>map-drk</title><rect width="16" height="16"/><path d="M16,2s0-.07,0-.11a1.18,1.18,0,0,0,0-.2l-.09-.19s0-.07,0-.1,0,0-.05,0l-.15-.13a.91.91,0,0,0-.16-.11l-.17-.06-.2,0H15l-.11,0-.2,0a1.11,1.11,0,0,0-.19.09l-.1.05L10.94,3.8,6.51,1.14h0l-.06,0a.85.85,0,0,0-.17-.06L6.12,1H6L5.89,1a.77.77,0,0,0-.15,0l-.07,0-.15.07-.13.07a0,0,0,0,0,0,0l-5,4,0,0a1,1,0,0,0-.13.16.65.65,0,0,0-.1.15.85.85,0,0,0-.06.17A.78.78,0,0,0,0,6S0,6,0,6v8a.79.79,0,0,0,0,.13.51.51,0,0,0,0,.2.76.76,0,0,0,.09.18.39.39,0,0,0,.06.11s0,0,0,0a1.16,1.16,0,0,0,.24.2l.09.06A1.12,1.12,0,0,0,1,15H1a1.15,1.15,0,0,0,.36-.07l.12-.07a.64.64,0,0,0,.14-.08L6,11.28l4.38,3.5a.47.47,0,0,0,.12.07l.11.06A1.06,1.06,0,0,0,11,15h0a1,1,0,0,0,.38-.08l.1-.06.12-.06,4-3,.05-.05.13-.15a1.53,1.53,0,0,0,.11-.16l.06-.17c0-.07,0-.13,0-.2S16,11,16,11ZM2,6.48l3-2.4V9.52l-3,2.4ZM7,3.77l3,1.8v6.35L7,9.52ZM12,5.5,14,4v6.5L12,12Z" transform="translate(0 0)"/></svg>
