<svg id="Layer_1" data-name="Layer 1" xmlns="http://www.w3.org/2000/svg" viewBox="0 0 16 16"><defs><style>.cls-1{fill:#404040;}.cls-2{fill:none;}</style></defs><title>star-drk</title><path class="cls-1" d="M4.13,16A1.57,1.57,0,0,1,2.63,14l1.16-3.74L.61,7.74a1.58,1.58,0,0,1,1-2.83H5.24L6.5,1.08a1.58,1.58,0,0,1,3,0l1.26,3.83h3.66a1.58,1.58,0,0,1,1,2.83l-3.2,2.48,1.15,3.71a1.58,1.58,0,0,1-2.48,1.72L8,13.43,5.1,15.67A1.6,1.6,0,0,1,4.13,16ZM2.81,6.91l3.3,2.57L4.93,13.27,8,10.91l3,2.34L9.87,9.49l3.32-2.58H9.32L8,2.92l-1.32,4Z" transform="translate(0 0)"/><rect class="cls-2" width="16" height="16"/></svg>