<svg id="Layer_1" data-name="Layer 1" xmlns="http://www.w3.org/2000/svg" viewBox="0 0 16 16"><defs><style>.cls-1{fill:none;}.cls-2{fill:#404040;}</style></defs><title>check-drk</title><rect class="cls-1" width="16" height="16"/><path class="cls-2" d="M15.67,2.26a1,1,0,0,0-1.41.07L6,11.55,1.71,7.29A1,1,0,1,0,.29,8.71l5,5h0s0,0,0,0a.59.59,0,0,0,.2.12l.11.07A1.1,1.1,0,0,0,6,14H6a1.09,1.09,0,0,0,.39-.08l.11-.08a.92.92,0,0,0,.21-.13s0,0,0,0h0l9-10A1,1,0,0,0,15.67,2.26Z" transform="translate(0)"/></svg>