<svg id="Layer_1" data-name="Layer 1" xmlns="http://www.w3.org/2000/svg" viewBox="0 0 16 16"><defs><style>.cls-1{fill:none;opacity:0.3;}.cls-2{fill:#404040;}</style></defs><title>info-drk</title><rect class="cls-1" width="16" height="16"/><path class="cls-2" d="M8,2A6,6,0,1,1,2,8,6,6,0,0,1,8,2M8,0a8,8,0,1,0,8,8A8,8,0,0,0,8,0Z" transform="translate(0 0)"/><path class="cls-2" d="M8,12a1,1,0,0,1-1-1V8A1,1,0,0,1,9,8v3A1,1,0,0,1,8,12Z" transform="translate(0 0)"/><circle class="cls-2" cx="8" cy="5" r="1"/></svg>