<svg id="Layer_1" data-name="Layer 1" xmlns="http://www.w3.org/2000/svg" viewBox="0 0 16 16"><defs><style>.cls-1{fill:none;}.cls-2{fill:#404040;}.cls-3{fill:#fff;}</style></defs><title>youtube-drk</title><rect class="cls-1" width="16" height="16"/><path class="cls-2" d="M15.67,4.12A2,2,0,0,0,14.25,2.7,47,47,0,0,0,8,2.36a47,47,0,0,0-6.25.34A2,2,0,0,0,.33,4.12,21.42,21.42,0,0,0,0,8a21.42,21.42,0,0,0,.33,3.88A2,2,0,0,0,1.75,13.3,47,47,0,0,0,8,13.64a47,47,0,0,0,6.25-.34,2,2,0,0,0,1.42-1.42A21.42,21.42,0,0,0,16,8,21.42,21.42,0,0,0,15.67,4.12Z" transform="translate(0 0)"/><polygon class="cls-3" points="6.36 10.38 10.54 8 6.36 5.62 6.36 10.38"/></svg>