<svg id="Layer_1" data-name="Layer 1" xmlns="http://www.w3.org/2000/svg" viewBox="0 0 16 16"><defs><style>.cls-1{fill:none;}.cls-2{fill:#404040;}</style></defs><title>next-drk</title><rect class="cls-1" width="16" height="16"/><path class="cls-2" d="M2,2a1,1,0,0,1,.49.13l9,5a1,1,0,0,1,0,1.74l-9,5a1,1,0,0,1-1,0A1,1,0,0,1,1,13V3a1,1,0,0,1,.49-.86A1,1,0,0,1,2,2ZM8.94,8,3,4.7v6.6Z" transform="translate(0)"/><path class="cls-2" d="M14,2a1,1,0,0,1,1,1V13a1,1,0,0,1-2,0V3A1,1,0,0,1,14,2Z" transform="translate(0)"/></svg>