<svg id="Layer_1" data-name="Layer 1" xmlns="http://www.w3.org/2000/svg" viewBox="0 0 16 16"><defs><style>.cls-1{fill:none;}.cls-2{fill:#404040;}</style></defs><title>email-drk</title><rect class="cls-1" x="-0.03" width="16" height="16" transform="translate(16 0.03) rotate(90)"/><path class="cls-2" d="M15,2H1A1,1,0,0,0,0,3V13a1,1,0,0,0,1,1H15a1,1,0,0,0,1-1V3A1,1,0,0,0,15,2ZM8,7.7,3.64,4.09H12.3ZM2.06,11.91V5.37l5.27,4.4.15.08a.6.6,0,0,0,.11.06A.88.88,0,0,0,8,10H8a.85.85,0,0,0,.38-.09.6.6,0,0,0,.11-.06l.15-.08,5.27-4.4v6.54Z" transform="translate(0.03 0)"/></svg>