<svg id="Layer_1" data-name="Layer 1" xmlns="http://www.w3.org/2000/svg" viewBox="0 0 16 16"><defs><style>.cls-1{fill:#404040;}.cls-2{fill:none;opacity:0.3;}</style></defs><title>alert-drk</title><path class="cls-1" d="M12.52,8l0,0V6.23A4.69,4.69,0,0,0,9,1.63.79.79,0,0,0,9,1.5a1,1,0,0,0-2,0s0,.07,0,.11A4.5,4.5,0,0,0,3.5,6V8l0,0A7.49,7.49,0,0,0,.59,12.86a1,1,0,0,0,1,1.14H6a2,2,0,0,0,4,0h4.42a1,1,0,0,0,1-1.15A7.49,7.49,0,0,0,12.52,8ZM2.88,12A5.41,5.41,0,0,1,4.69,9.62L5.5,9V6A2.5,2.5,0,0,1,8,3.5h.23A2.68,2.68,0,0,1,10.5,6.23V8l0,1,.79.6A5.41,5.41,0,0,1,13.12,12Z" transform="translate(0 0)"/><rect class="cls-2" width="16" height="16"/></svg>