<svg id="Layer_1" data-name="Layer 1" xmlns="http://www.w3.org/2000/svg" viewBox="0 0 16 16"><defs><style>.cls-1{fill:none;}.cls-2{fill:#404040;}.cls-3{fill:#fff;}</style></defs><title>facebook-drk</title><rect class="cls-1" width="16" height="16"/><path class="cls-2" d="M14,8a6,6,0,1,0-6.94,5.93V9.73H5.54V8H7.06V6.68A2.12,2.12,0,0,1,9.33,4.34a8.89,8.89,0,0,1,1.34.12V5.94H9.92a.86.86,0,0,0-1,.93V8H10.6l-.26,1.73H8.94v4.2A6,6,0,0,0,14,8Z" transform="translate(0 0)"/><path class="cls-3" d="M10.34,9.73,10.6,8H8.94V6.87a.86.86,0,0,1,1-.93h.75V4.46a8.89,8.89,0,0,0-1.34-.12A2.12,2.12,0,0,0,7.06,6.68V8H5.54V9.73H7.06v4.2a6.35,6.35,0,0,0,1.88,0V9.73Z" transform="translate(0 0)"/></svg>